<?xml version="1.0" standalone="no"?>
<!DOCTYPE svg PUBLIC "-//W3C//DTD SVG 20010904//EN"
 "http://www.w3.org/TR/2001/REC-SVG-20010904/DTD/svg10.dtd">
<svg version="1.0" xmlns="http://www.w3.org/2000/svg"
 width="960.000000pt" height="960.000000pt" viewBox="0 0 960.000000 960.000000"
 preserveAspectRatio="xMidYMid meet">
<metadata>
Created by potrace 1.14, written by Peter Selinger 2001-2017
</metadata>
<g transform="translate(0.000000,960.000000) scale(0.100000,-0.100000)"
fill="#000000" stroke="none">
<path d="M4802 9588 c-7 -7 -12 -10 -12 -7 0 3 -418 -412 -928 -921 -510 -509
-1184 -1178 -1498 -1487 -313 -309 -700 -691 -861 -850 -576 -570 -1405 -1388
-1420 -1402 -12 -12 -9 -19 23 -52 21 -22 40 -39 43 -39 3 0 861 856 1906
1903 2104 2105 2733 2729 2748 2724 5 -1 106 -99 224 -217 117 -118 1157
-1159 2310 -2313 l2097 -2098 48 50 49 51 -365 363 c-201 199 -674 668 -1051
1042 -378 374 -877 869 -1110 1100 -233 231 -760 754 -1172 1162 -958 949
-1012 1003 -1016 1003 -2 0 -8 -5 -15 -12z"/>
<path d="M7538 9005 c-2 -2 -32 -5 -68 -9 -94 -9 -99 -10 -292 -61 -10 -3 -26
-7 -35 -9 -10 -3 -52 -17 -93 -32 -41 -15 -104 -37 -139 -49 -64 -22 -68 -29
-20 -39 13 -3 58 -14 99 -25 41 -11 87 -22 103 -25 113 -21 151 -26 217 -32
115 -10 250 -11 250 -1 0 4 5 5 11 1 6 -3 48 -7 92 -7 45 0 97 -4 116 -10 20
-6 39 -11 44 -11 20 -2 79 -61 98 -98 28 -55 30 -89 32 -522 l2 -369 43 1 c23
0 75 1 116 1 l74 1 0 130 c1 72 3 134 6 138 2 4 7 39 11 77 4 39 9 79 11 90 7
33 18 186 18 245 -1 111 -26 240 -55 276 -5 6 -7 13 -4 15 2 3 -18 35 -45 71
-74 101 -185 181 -301 217 -35 11 -45 14 -116 27 -32 6 -170 13 -175 9z"/>
<path d="M1525 4843 c-22 -12 -49 -27 -60 -32 -32 -14 -75 -66 -88 -103 -9
-25 -12 -561 -11 -2168 1 -1174 4 -2153 7 -2174 13 -79 53 -178 82 -198 5 -4
7 -8 2 -8 -15 0 79 -82 118 -102 22 -12 67 -29 100 -40 57 -17 111 -18 990
-15 512 1 941 6 955 10 22 6 75 19 90 22 28 5 106 51 140 81 45 41 102 147
114 214 3 19 8 46 11 59 15 78 18 295 21 1381 1 663 5 1214 7 1225 10 50 20
75 28 75 5 0 9 7 9 15 0 28 63 73 127 91 59 16 184 16 278 0 135 -24 439 -24
595 -1 113 16 144 19 230 19 191 -1 284 -65 321 -221 8 -34 12 -403 15 -1288
1 -682 5 -1253 8 -1270 2 -16 8 -52 12 -80 4 -27 8 -52 9 -55 0 -3 4 -11 8
-18 5 -6 6 -12 2 -12 -3 0 8 -26 24 -57 49 -97 121 -146 256 -177 61 -14 184
-15 1005 -13 870 2 939 3 990 20 191 63 249 144 278 388 9 78 7 4173 -2 4239
-7 45 -14 126 -15 166 -1 19 -6 20 -78 18 -43 -1 -95 -2 -116 -3 l-38 -1 3
-2177 c1 -1198 -1 -2189 -6 -2203 -29 -98 -72 -150 -149 -178 -56 -21 -238
-24 -352 -6 -49 8 -112 17 -140 20 -63 8 -90 12 -90 14 0 3 -209 12 -290 13
-140 0 -352 -18 -460 -39 -11 -2 -42 -7 -70 -10 -27 -3 -56 -7 -64 -10 -16 -5
-207 -6 -231 -1 -117 25 -168 56 -207 127 -46 83 -46 76 -49 1365 -1 671 -5
1240 -8 1265 -18 137 -20 146 -65 240 -21 46 -89 113 -137 138 -56 28 -95 39
-194 58 -14 2 -108 6 -210 9 -102 3 -200 7 -217 9 -18 2 -33 0 -33 -6 0 -5 -4
-6 -10 -3 -12 8 -289 9 -296 2 -4 -3 -16 -2 -29 3 -13 5 -25 7 -27 5 -2 -2
-103 -6 -223 -9 -121 -3 -231 -7 -245 -9 -14 -3 -43 -8 -65 -12 -91 -16 -196
-72 -253 -135 -48 -54 -92 -171 -107 -285 -15 -108 -25 -1629 -15 -2245 4
-215 -4 -335 -21 -346 -5 -3 -7 -9 -4 -14 3 -5 1 -11 -5 -15 -6 -4 -8 -10 -5
-14 2 -5 -15 -28 -40 -53 -80 -81 -217 -98 -510 -63 -119 15 -695 28 -718 17
-5 -2 -47 -6 -95 -8 -48 -2 -109 -6 -137 -9 -27 -3 -110 -8 -182 -11 -115 -4
-141 -2 -194 16 -105 36 -150 98 -175 245 -4 22 -6 153 -6 290 2 307 4 2870 2
3015 0 58 -1 222 -1 365 0 143 -2 276 -4 295 -3 19 -7 64 -10 100 -3 36 -7 79
-10 95 -2 17 -5 45 -7 63 -1 17 -5 32 -9 32 -3 0 -5 10 -4 23 1 12 -1 33 -4
47 l-6 25 -40 -22z"/>
</g>
</svg>
